<?xml version="1.0" encoding="UTF-8"?>
<!DOCTYPE svg PUBLIC "-//W3C//DTD SVG 1.1//EN" "http://www.w3.org/Graphics/SVG/1.1/DTD/svg11.dtd">
<svg xmlns="http://www.w3.org/2000/svg" version="1.1" width="128px" height="128px" style="shape-rendering:geometricPrecision; text-rendering:geometricPrecision; image-rendering:optimizeQuality; fill-rule:evenodd; clip-rule:evenodd" xmlns:xlink="http://www.w3.org/1999/xlink">
<g><path style="opacity:0.992" fill="#5d3a7e" d="M 13.5,-0.5 C 46.5,-0.5 79.5,-0.5 112.5,-0.5C 119.414,2.07924 124.414,6.74591 127.5,13.5C 127.5,46.5 127.5,79.5 127.5,112.5C 124.833,119.833 119.833,124.833 112.5,127.5C 79.8333,127.5 47.1667,127.5 14.5,127.5C 7.16667,124.833 2.16667,119.833 -0.5,112.5C -0.5,79.8333 -0.5,47.1667 -0.5,14.5C 2.07924,7.58628 6.74591,2.58628 13.5,-0.5 Z M 34.5,27.5 C 47.5043,27.3334 60.5043,27.5001 73.5,28C 89.757,30.2404 95.257,39.0738 90,54.5C 87.4634,57.372 84.6301,59.872 81.5,62C 91.0193,64.6889 95.686,71.0223 95.5,81C 94.2031,92.9636 87.5364,99.6303 75.5,101C 61.8374,101.5 48.1707,101.667 34.5,101.5C 34.5,76.8333 34.5,52.1667 34.5,27.5 Z"/></g>
<g><path style="opacity:0.951" fill="#5d3b7e" d="M 46.5,37.5 C 55.5062,37.3336 64.5062,37.5002 73.5,38C 78.0151,39.6654 80.3485,42.9987 80.5,48C 80.2681,52.4744 78.2681,55.8077 74.5,58C 65.2246,59.3527 55.8912,59.8527 46.5,59.5C 46.5,52.1667 46.5,44.8333 46.5,37.5 Z"/></g>
<g><path style="opacity:0.965" fill="#5e3b7e" d="M 46.5,67.5 C 56.1724,67.3335 65.8391,67.5002 75.5,68C 83.3774,71.9805 85.5441,78.1472 82,86.5C 80.4571,88.3783 78.6238,89.8783 76.5,91C 66.5056,91.4998 56.5056,91.6665 46.5,91.5C 46.5,83.5 46.5,75.5 46.5,67.5 Z"/></g>
</svg>
